<?xml version="1.0" encoding="utf-8"?>
<!-- Generator: Adobe Illustrator 16.0.0, SVG Export Plug-In . SVG Version: 6.00 Build 0)  -->
<!DOCTYPE svg PUBLIC "-//W3C//DTD SVG 1.1//EN" "http://www.w3.org/Graphics/SVG/1.1/DTD/svg11.dtd">
<svg version="1.1" id="Layer_1" xmlns="http://www.w3.org/2000/svg" xmlns:xlink="http://www.w3.org/1999/xlink" x="0px" y="0px"
	 width="340px" height="270px" viewBox="0 0 340 270" enable-background="new 0 0 340 270" xml:space="preserve">
<g>
	<g>
		<path fill="#FFFFFF" d="M93.988,113.145c-0.872,14.367-1.633,28.926,1.878,43.029c1.331,5.348,4.021,10.346,6.529,15.217
			c2.635,5.119,5.947,10.282,10.633,13.748c10.542,7.798,26.854,5.363,38.854,2.919c12.319-2.51,17.909-12.778,27.756-19.182
			c5.629-3.659,11.064-7.27,17.149-10.154c6.782-3.217,13.568-6.253,19.738-10.581c11.016-7.729,13.008-19.452,13.017-32.134
			c0.006-7.496-0.953-14.972-1.167-22.463c-0.185-6.457-1.045-12.788-3.28-18.876c-4.599-12.526-15.464-18.589-27.501-22.601
			c-7.613-2.538-15.286-3.292-23.252-3.839c-8.94-0.614-17.787-1.228-26.759-1.135c-9.012,0.093-17.972,1.124-26.958,1.701
			c-6.327,0.407-12.688,0.841-18.239,4.209c-10.592,6.428-9.264,21.054-8.952,31.713C93.711,94.15,94.416,103.709,93.988,113.145
			c-0.307,6.772,10.195,6.742,10.5,0c0.367-8.103-0.195-16.308-0.434-24.408c-0.235-7.963-3.146-22.553,4.641-27.279
			c4.338-2.632,10.928-2.077,15.776-2.424c8.365-0.6,16.677-1.374,25.07-1.46c14.792-0.152,31.098,0.08,45.261,4.619
			c5.963,1.911,11.726,4.375,16.19,8.881c4.566,4.607,6.109,12.031,6.705,18.241c0.668,6.97,0.743,14.09,1.153,21.088
			c0.399,6.818,0.548,13.915-1.434,20.512c-1.898,6.319-8.143,9.739-13.53,12.728c-6.494,3.603-13.485,6.203-19.929,9.905
			c-5.453,3.134-11.221,6.769-16.051,10.805c-4.628,3.867-7.714,8.826-13.169,11.729c-6.739,3.587-16.518,3.562-23.93,3.63
			c-10.11,0.093-14.934-5.339-19.348-13.619c-3.785-7.101-6.273-14.083-7.159-22.123c-1.129-10.251-0.438-20.567,0.185-30.824
			C104.899,106.378,94.396,106.418,93.988,113.145L93.988,113.145z"/>
	</g>
</g>
<g>
	<g>
		<path fill="#FFFFFF" d="M198.083,154.666c-0.812-7.081,2.027-13.34,4.717-19.728c2.922-6.941,5.18-14.099,6.791-21.456
			c2.616-11.945,7.198-26.534,1.459-38.14c-5.023-10.158-19.093-9.798-28.602-10.047c-14.967-0.392-29.955-3.344-44.763,0.102
			c-9.554,2.224-20.209,7.708-22.915,17.874c-1.61,6.049,0.557,12.596,2.71,18.198c2.564,6.672,4.734,13.496,7.745,19.987
			c4.972,10.721,11.602,24.647,24.654,25.862c5.965,0.555,11.783-2,16.345-5.569c2.456-1.921,4.433-4.52,6.56-6.782
			c2.748-2.922,5.765-5.619,8.589-8.472c7.578-7.655,23.386-21.679,12.216-32.985c-5.815-5.887-13.234-10.247-19.885-15.125
			c-5.01-3.675-11.726-7.326-17.988-4.637c-5.94,2.551-7.015,10.921-4.129,16.146c2.761,5,7.885,7.899,11.101,12.533
			c2.133,3.073-2.111-1.411,1.577-1.832c-2.11,0.241-4.434-0.892-6.34-1.632c-3.478-1.351-6.922-2.348-10.503-3.391
			c-4.234-1.233-4.445-3.18-4.166-7.304c0.26-3.842,0.943-8.398,2.444-11.953c2.6-6.161-6.441-11.519-9.066-5.3
			c-4.041,9.573-7.462,24.778,1.984,32.071c4.146,3.201,10.327,3.419,15.058,5.395c4.913,2.052,13.273,4.843,17.71,0.144
			c7.453-7.895-4.291-16.859-9.395-22.034c-0.937-0.951-2.7-3.518-1.008-3.198c2.772,0.523,5.176,2.472,7.421,4.058
			c2.661,1.878,5.215,3.897,7.896,5.748c3.295,2.273,7.396,4.516,9.864,7.748c2.763,3.619-3.892,9.549-6.076,11.822
			c-4.821,5.017-9.796,9.868-14.729,14.773c-4.876,4.849-7.98,9.333-15.48,9.276c-5.839-0.044-9.89-10.206-12.303-14.389
			c-3.56-6.17-5.667-12.655-8.182-19.26c-2.047-5.376-6.685-13.254-3.832-19.035c2.04-4.133,7.48-6.275,11.554-7.657
			c6.799-2.307,13.997-2.58,21.107-2.256c5.63,0.256,11.202,1.142,16.839,1.38c5.755,0.243,11.512,0.204,17.258,0.658
			c2.955,0.233,6.264,0.794,8.528,2.841c3.397,3.072,2.638,9.519,2.059,13.503c-1.536,10.568-3.776,21.369-7.157,31.499
			c-3.355,10.053-9.429,19.563-8.168,30.563C188.345,161.313,198.854,161.387,198.083,154.666L198.083,154.666z"/>
	</g>
</g>
<g>
	<g>
		<path fill="#FFFFFF" d="M147.017,190.533c4.926,3.237,9.87,5.256,15.715,6.012c6.934,0.895,14.146-1.796,20.849-3.115
			c13.579-2.674,26.683-4.813,39.102-11.262c23.338-12.118,31.783-37.061,46.313-57.261c8.286-11.52,18.423-19.648,31.976-24.079
			c5.719-1.869,11.816-3.458,16.634-7.218c3.418-2.667,3.669-8.313,5.479-11.934c-0.144,0.287-1.285,0.224-1.229,0.254
			c-0.942-0.515,0.418,0.562-0.06-0.079c0.36,0.483,0.63,1.033,0.902,1.566c1.315,2.573,1.666,6.211,1.97,9.146
			c0.828,7.99,0.536,16.128-0.029,24.126c-0.533,7.543-1.586,13.093-3.04,21.245c-2.229,12.501-5.032,25.545-11.673,36.531
			c-6.738,11.149-15.991,20.561-25.48,29.376c-9.38,8.714-18.93,17.419-29.99,23.956c-10.179,6.016-21.338,9.797-32.521,13.453
			c-8.128,2.658-16.275,5.28-24.674,6.958c-7.386,1.476-15.162,1.933-22.32-0.739c-7.895-2.948-11.23-11.678-12.876-19.198
			c-1.447-6.613-11.569-3.809-10.125,2.791c2.104,9.613,6.461,18.302,14.794,23.885c7.028,4.708,16.226,5.387,24.404,4.683
			c9.349-0.805,18.447-3.42,27.355-6.235c11.185-3.534,22.336-7.186,32.974-12.169c12.384-5.802,22.68-14.212,32.871-23.181
			c10.478-9.219,20.433-18.854,28.942-29.949c14.425-18.805,19.081-43.697,21.464-66.818c0.781-7.583,1.057-15.247,0.805-22.865
			c-0.233-7.088-0.751-15.089-4.37-21.376c-3.461-6.011-12.604-7.925-16.708-1.382c-1.915,3.054-2.007,7.871-4.289,10.531
			c-1.637,1.908-6.618,2.822-8.965,3.583c-3.434,1.114-6.83,2.183-10.159,3.592c-26.336,11.143-37.071,36.916-51.638,59.498
			c-6.328,9.81-15.228,17.127-25.734,22.072c-13.162,6.195-28.128,7.019-42.099,10.417c-7.288,1.773-13.12,0.16-19.268-3.881
			C146.64,177.735,141.386,186.832,147.017,190.533L147.017,190.533z"/>
	</g>
</g>
<g>
	<g>
		<path fill="#FFFFFF" d="M96.917,61.335c-0.33-9.274,3.43-18.021,9.538-24.904c7.124-8.026,15.927-10.651,26.177-7.897
			c4.891,1.314,9.719,2.557,14.822,2.026c5.59-0.582,10.744-3.433,15.443-6.338c4.5-2.783,8.775-6.161,13.738-8.108
			c5.891-2.311,12.266-2.428,18.481-1.899c11.12,0.946,22.337,5.357,32.489,9.769c9.769,4.245,18.77,10.036,26.212,17.681
			c16.709,17.164,19.229,41.608,19.267,64.336c0.012,6.771,10.512,6.771,10.5,0c-0.043-25.547-3.723-50.881-21.326-70.669
			c-7.965-8.954-18.516-15.528-29.353-20.415c-12.011-5.416-24.659-9.725-37.789-11.203c-13.12-1.477-24.076,2.664-34.852,9.721
			c-5.349,3.503-10.725,7.107-17.36,6.725c-6.022-0.347-11.715-3.206-17.828-3.58c-22.301-1.365-39.37,24.8-38.66,44.755
			C86.657,68.086,97.158,68.109,96.917,61.335L96.917,61.335z"/>
	</g>
</g>
<g>
	<g>
		<path fill="#FFFFFF" d="M93.396,34.272c-7.577-2.323-16.221,1.969-22.795,5.383c-8.846,4.593-16.314,11.413-21.992,19.567
			c-6.913,9.928-8.893,22.28-8.524,34.112c0.165,5.307,0.344,10.903,2.43,15.865c1.795,4.271,4.365,8.086,5.758,12.531
			c1.688-2.215,3.375-4.43,5.063-6.646c-4.662,0.437-10.157-0.323-13.884,3.178c-5.054,4.748-4.814,11.511-3.746,17.837
			c2.284,13.531,4.096,28.181,12.12,39.703c7.036,10.103,17.6,17.42,28.393,23.016c5.583,2.895,11.426,5.361,17.472,7.094
			c2.905,0.832,5.813,1.336,8.819,1.598c2.361,0.206,5.666-0.455,6.4,1.94c1.227,3.997-0.58,9.266-1.625,13.12
			c-1.378,5.079-3.961,10.067-4.727,15.244c-1.871,12.661,13.233,14.002,21.841,17.016c4.661,1.632,9.396,3.347,14.416,3.014
			c6.425-0.426,9.777-4.817,12.94-9.867c7.869-12.566,15.317-25.296,21.016-39.013c1.836-4.418,3.337-8.963,4.628-13.567
			c1.832-6.532-8.3-9.301-10.125-2.791c-3.454,12.317-8.986,23.697-15.315,34.771c-3.253,5.691-6.734,11.252-10.213,16.807
			c-2.848,4.547-6.412,3.235-10.973,1.771c-4.128-1.325-8.17-2.716-12.361-3.843c-1.756-0.473-3.978-0.923-5.424-2.106
			c-1.034-0.847,2.025-6.877,2.412-7.942c2.656-7.316,5.494-16.634,3.841-24.434c-2.349-11.088-12.424-9.318-21.133-11.416
			c-10.985-2.645-21.515-8.409-30.551-15.096c-9.945-7.36-15.045-16.661-17.996-28.456c-1.597-6.386-2.491-12.897-3.729-19.353
			c-0.25-1.307-1.237-6.485,0.579-7.208c1.986-0.791,4.809-0.317,6.926-0.516c3.251-0.305,6.161-3.141,5.063-6.646
			c-2.212-7.059-6.817-12.932-7.603-20.461c-1.064-10.206-0.086-20.439,4.396-29.737c3.717-7.709,10.428-13.868,17.631-18.283
			c4.386-2.688,12.409-7.708,17.783-6.06C97.097,46.387,99.851,36.251,93.396,34.272L93.396,34.272z"/>
	</g>
</g>
<g>
	<g>
		<path fill="#FFFFFF" d="M87.396,32.605c-18.038-5.677-36.424-5.442-54.822-1.796C19.981,33.306,6.695,39.05,4.723,53.059
			c-0.904,6.42-0.626,12.934-0.184,19.381c0.656,9.549,1.794,19.113,4.78,28.242c4.292,13.125,13.375,27.925,26.366,33.854
			c6.112,2.789,11.453-6.259,5.3-9.066c-10.819-4.937-17.656-16.825-21.541-27.578c-4.533-12.549-5.409-27.507-4.658-40.788
			c0.296-5.242,1.666-8.396,6.198-11.173c4.608-2.824,10.164-4.159,15.412-5.199c16.187-3.208,32.396-2.976,48.209,2
			C91.083,44.769,93.832,34.631,87.396,32.605L87.396,32.605z"/>
	</g>
</g>
</svg>
