<?xml version="1.0" encoding="UTF-8"?>
<svg xmlns="http://www.w3.org/2000/svg" xmlns:xlink="http://www.w3.org/1999/xlink" width="283pt" height="389pt" viewBox="0 0 283 389" version="1.1">
<g id="surface1">
<path style=" stroke:none;fill-rule:nonzero;fill:rgb(100%,100%,100%);fill-opacity:1;" d="M 82.652344 285.742188 C 83.417969 285.75 84.125 285.753906 84.753906 285.757812 C 83.816406 286.511719 82.824219 287.480469 81.8125 288.511719 L 81.789062 288.535156 L 81.144531 287.980469 C 81.640625 287.257812 82.148438 286.507812 82.652344 285.742188 Z M 82.652344 285.742188 "/>
<path style=" stroke:none;fill-rule:nonzero;fill:rgb(0%,49.803922%,100%);fill-opacity:1;" d="M 54.273438 90.730469 C 57.277344 88.414062 61.328125 87.484375 66 88.011719 C 69.460938 83.6875 74.015625 81.660156 79.191406 82.15625 C 86.316406 82.835938 93.34375 88.25 96.863281 93.664062 C 113.015625 106.25 120.003906 115.375 122.628906 127.304688 C 125.445312 140.113281 122.851562 156.59375 117.394531 180.628906 C 117.5625 180.65625 117.726562 180.6875 117.890625 180.714844 C 118.257812 178.042969 119.257812 175.523438 120.886719 173.238281 C 125.230469 167.140625 130.296875 164.007812 135.941406 163.929688 C 142.605469 163.839844 149.847656 168.167969 157.054688 176.503906 C 154.46875 169.285156 152.816406 159.496094 152.347656 145.5625 C 151.652344 124.957031 159.5 115.121094 166.207031 110.5 C 174.96875 104.460938 185.6875 104.601562 192.417969 107.414062 C 207.878906 113.878906 217.871094 134.605469 217.871094 160.21875 C 217.871094 175.359375 221.128906 178.4375 222.800781 178.832031 C 225.792969 179.539062 230.3125 173.625 235.308594 163.652344 C 248.304688 137.691406 251.691406 138.492188 252.804688 138.753906 C 254.578125 139.171875 254.777344 141.933594 254.777344 143.980469 C 254.777344 153.214844 253.730469 161.605469 251.671875 169.144531 C 262.355469 152.851562 269.722656 131.980469 264.394531 124.097656 C 262.316406 121.023438 258.378906 120.164062 252.675781 121.550781 C 252.300781 121.644531 251.917969 121.414062 251.828125 121.035156 C 251.734375 120.660156 251.964844 120.277344 252.34375 120.1875 C 253.289062 119.957031 254.191406 119.792969 255.050781 119.675781 C 253.8125 111.632812 251.277344 103.566406 247.535156 95.589844 C 247.503906 95.546875 247.484375 95.5 247.46875 95.445312 C 235.539062 70.140625 211.472656 45.78125 178.335938 26.140625 C 136.402344 1.285156 109.507812 1.363281 93.441406 1.410156 L 93.105469 1.410156 C 108.503906 17.320312 120.472656 40.269531 122.394531 57.785156 C 122.417969 58.007812 122.332031 58.234375 122.160156 58.382812 C 121.992188 58.535156 121.761719 58.597656 121.539062 58.546875 C 76.5625 48.441406 37.867188 68.335938 24.882812 80.375 C 37.71875 82.976562 49.007812 91.277344 51.738281 93.402344 C 52.433594 92.398438 53.273438 91.5 54.273438 90.730469 M 210.039062 110.195312 C 210.101562 110.589844 197.007812 95.457031 181.335938 94.570312 C 173.929688 93.617188 165.644531 96.667969 161.601562 101.53125 C 157.351562 106.183594 156.152344 110.710938 155.78125 110.535156 C 155.773438 110.570312 155.921875 107.882812 158.921875 103.308594 C 161.578125 98.832031 169.171875 92.359375 181.070312 93.304688 C 192.8125 94.464844 200.097656 100.234375 204.308594 103.875 C 208.585938 107.6875 210.070312 110.1875 210.039062 110.195312 M 159.226562 80.890625 C 159.226562 73.519531 162.402344 58.675781 166.496094 50.59375 C 166.660156 50.273438 167.039062 50.128906 167.371094 50.253906 C 177.496094 54.046875 185.351562 66.039062 188.089844 71.851562 C 188.191406 72.070312 188.179688 72.324219 188.046875 72.527344 C 187.917969 72.730469 187.695312 72.851562 187.453125 72.851562 C 177.09375 72.851562 165.222656 76.601562 160.429688 81.390625 C 160.226562 81.589844 159.925781 81.648438 159.660156 81.542969 C 159.398438 81.433594 159.226562 81.175781 159.226562 80.890625 M 160.101562 40.191406 C 162.054688 38.648438 163.839844 38.003906 165.125 38.371094 C 169.960938 39.75 190.585938 54.347656 199.960938 72.132812 C 200.144531 72.476562 200.015625 72.902344 199.667969 73.082031 C 199.324219 73.261719 198.898438 73.132812 198.714844 72.789062 C 189.5 55.292969 168.910156 40.910156 164.742188 39.71875 C 164.113281 39.539062 162.792969 39.859375 160.976562 41.292969 C 155.398438 45.691406 146.289062 60.289062 147.496094 87.109375 C 147.515625 87.496094 147.214844 87.824219 146.828125 87.84375 C 146.4375 87.859375 146.109375 87.558594 146.09375 87.171875 C 144.933594 61.566406 152.917969 45.859375 160.101562 40.191406 Z M 160.101562 40.191406 "/>
<path style=" stroke:none;fill-rule:nonzero;fill:rgb(0%,49.803922%,100%);fill-opacity:1;" d="M 99.480469 121.945312 C 98.269531 123.375 96.699219 124.429688 94.773438 125.109375 C 94.632812 131.660156 91.308594 135.839844 85.574219 136.699219 C 85.59375 149.4375 85.496094 151.207031 81.84375 154.859375 L 81.785156 154.914062 C 76.519531 160.167969 70.5625 166.113281 59.839844 162.957031 C 58.535156 164.457031 56.992188 165.753906 55.359375 166.480469 C 51.546875 168.171875 43.390625 171.324219 37.917969 170.195312 C 32.96875 178.011719 31.894531 188.679688 31.671875 192.257812 C 63.113281 174.929688 87.902344 177.277344 97.300781 178.171875 C 98.464844 178.28125 99.417969 178.371094 100.132812 178.402344 C 104.65625 165.835938 112.65625 142.992188 99.480469 121.945312 Z M 99.480469 121.945312 "/>
<path style=" stroke:none;fill-rule:nonzero;fill:rgb(0%,49.803922%,100%);fill-opacity:1;" d="M 87.550781 295.332031 L 80.324219 289.132812 C 76.589844 294.371094 73.027344 298.390625 69.652344 301.179688 L 75.140625 305.707031 C 78.457031 303.648438 83.851562 299.898438 87.550781 295.332031 Z M 87.550781 295.332031 "/>
<path style=" stroke:none;fill-rule:nonzero;fill:rgb(0%,49.803922%,100%);fill-opacity:1;" d="M 86.902344 267.359375 C 87.195312 267.289062 87.488281 267.214844 87.777344 267.132812 L 97.222656 256.175781 C 92.667969 254.679688 88.476562 252.089844 84.59375 248.371094 L 80.46875 252.460938 C 83.976562 254.6875 86.136719 259.699219 86.902344 267.359375 Z M 86.902344 267.359375 "/>
<path style=" stroke:none;fill-rule:nonzero;fill:rgb(0%,49.803922%,100%);fill-opacity:1;" d="M 130.300781 259.257812 C 132.359375 258.800781 134.660156 258.214844 137.066406 257.601562 C 146.636719 255.171875 153.207031 253.671875 155.765625 255.191406 C 155.875 254.160156 155.941406 253.09375 155.941406 252.035156 C 155.941406 251.644531 156.257812 251.332031 156.644531 251.332031 C 157.035156 251.332031 157.347656 251.644531 157.347656 252.035156 C 157.347656 252.503906 157.335938 252.972656 157.3125 253.4375 C 157.3125 253.453125 157.3125 253.464844 157.3125 253.480469 C 157.296875 253.742188 157.277344 254 157.257812 254.253906 C 157.253906 254.308594 157.25 254.363281 157.246094 254.417969 C 157.234375 254.566406 157.222656 254.71875 157.210938 254.863281 C 157.1875 255.132812 157.152344 255.394531 157.125 255.65625 C 157.113281 255.75 157.105469 255.847656 157.09375 255.9375 C 157.09375 255.945312 157.09375 255.949219 157.089844 255.953125 C 157.082031 256.027344 157.074219 256.097656 157.0625 256.167969 C 157.007812 256.585938 156.949219 256.996094 156.886719 257.398438 C 156.886719 257.398438 156.886719 257.398438 156.886719 257.402344 C 156.882812 257.40625 156.882812 257.410156 156.882812 257.414062 C 156.808594 257.894531 156.722656 258.347656 156.636719 258.792969 C 156.628906 258.839844 156.621094 258.878906 156.613281 258.921875 C 156.53125 259.332031 156.449219 259.726562 156.367188 260.101562 C 156.359375 260.128906 156.355469 260.160156 156.347656 260.1875 C 156.261719 260.570312 156.175781 260.9375 156.09375 261.269531 C 156.085938 261.289062 156.082031 261.3125 156.078125 261.328125 C 155.984375 261.683594 155.902344 262.011719 155.820312 262.304688 C 157.5 261.464844 159.203125 260.765625 160.902344 260.261719 C 167.886719 258.179688 173.003906 257.847656 176.457031 259.257812 C 177.742188 254.375 178.839844 247.546875 177.496094 246.207031 C 172.035156 240.757812 154.621094 240.410156 139.363281 245.417969 C 136.671875 250.308594 133.511719 254.996094 130.300781 259.257812 Z M 130.300781 259.257812 "/>
<path style=" stroke:none;fill-rule:nonzero;fill:rgb(0%,49.803922%,100%);fill-opacity:1;" d="M 154.195312 219.050781 C 153.515625 218.820312 152.839844 218.585938 152.179688 218.339844 C 143.320312 215.023438 135.480469 210.257812 129.527344 204.800781 C 129.296875 211.847656 127.667969 221.347656 126.023438 229.375 C 127.207031 227.234375 128.351562 225.03125 129.507812 222.679688 C 132.617188 216.34375 137.621094 214.941406 140.957031 216.320312 C 145.136719 218.050781 147.828125 224.257812 144.410156 234.226562 C 143.324219 237.394531 141.921875 240.550781 140.3125 243.636719 C 142.476562 242.980469 144.664062 242.421875 146.839844 241.96875 C 149.953125 238.664062 154.980469 226.714844 154.195312 219.050781 Z M 154.195312 219.050781 "/>
<path style=" stroke:none;fill-rule:nonzero;fill:rgb(0%,49.803922%,100%);fill-opacity:1;" d="M 155.644531 219.523438 C 155.960938 224.324219 154.355469 230.296875 152.332031 235.128906 C 156.175781 234.492188 167.5625 233.304688 177.128906 239.296875 C 177.253906 236.328125 177.328125 228.496094 174.996094 223.359375 C 168.351562 222.726562 161.738281 221.460938 155.644531 219.523438 Z M 155.644531 219.523438 "/>
<path style=" stroke:none;fill-rule:nonzero;fill:rgb(0%,49.803922%,100%);fill-opacity:1;" d="M 265.566406 123.3125 C 267.207031 125.746094 267.769531 129.203125 267.496094 133.28125 C 275.132812 124.199219 281.675781 104.753906 281.675781 100.722656 C 281.675781 98.550781 273.144531 96.023438 249.238281 95.949219 C 252.8125 103.761719 255.25 111.65625 256.453125 119.539062 C 260.632812 119.28125 263.691406 120.539062 265.566406 123.3125 Z M 265.566406 123.3125 "/>
<path style=" stroke:none;fill-rule:nonzero;fill:rgb(100%,80%,69.803922%);fill-opacity:1;" d="M 167.46875 51.824219 C 163.613281 59.804688 161.058594 72.488281 160.6875 79.296875 C 166.085938 74.984375 176.726562 71.714844 186.332031 71.472656 C 183.730469 66.4375 176.597656 55.59375 167.46875 51.824219 Z M 167.46875 51.824219 "/>
<path style=" stroke:none;fill-rule:nonzero;fill:rgb(100%,80%,69.803922%);fill-opacity:1;" d="M 101.320312 179.261719 C 100.96875 180.246094 100.652344 181.132812 100.367188 181.945312 C 105.398438 180.289062 110.730469 179.75 116 180.421875 C 127.265625 130.84375 124.90625 117.941406 98.550781 96.789062 C 101.589844 103.414062 103.925781 112.757812 101.199219 119.148438 C 100.960938 119.707031 100.675781 120.21875 100.371094 120.710938 C 114.480469 142.683594 105.929688 166.457031 101.320312 179.261719 Z M 101.320312 179.261719 "/>
<path style=" stroke:none;fill-rule:nonzero;fill:rgb(100%,80%,69.803922%);fill-opacity:1;" d="M 78.714844 228.8125 C 80.457031 233.078125 80.933594 239.046875 81.0625 242.355469 C 88.351562 251.65625 96.796875 256.222656 106.859375 256.320312 C 107.007812 256.148438 107.164062 255.980469 107.308594 255.804688 C 114.765625 246.742188 119.640625 240.140625 123.753906 233.308594 C 126.585938 220.328125 128.097656 210.035156 128.144531 203.492188 C 123.507812 198.929688 120.183594 193.949219 118.65625 188.964844 C 117.933594 186.617188 117.648438 184.320312 117.765625 182.121094 C 111.644531 180.972656 105.371094 181.554688 99.570312 183.714844 C 99.550781 183.726562 99.527344 183.730469 99.507812 183.738281 C 96.207031 184.976562 93.058594 186.710938 90.1875 188.9375 C 83.292969 194.292969 74.902344 204.824219 73.832031 224.664062 C 75.839844 225.042969 77.601562 226.105469 78.714844 228.8125 Z M 78.714844 228.8125 "/>
<path style=" stroke:none;fill-rule:nonzero;fill:rgb(100%,80%,69.803922%);fill-opacity:1;" d="M 140.417969 217.621094 C 137.675781 216.484375 133.480469 217.773438 130.773438 223.296875 C 125.054688 234.9375 119.617188 243.054688 108.394531 256.695312 C 108.164062 256.980469 107.917969 257.253906 107.671875 257.527344 C 102.679688 263.121094 95.644531 266.449219 88.476562 268.398438 C 88.394531 268.441406 88.300781 268.460938 88.207031 268.46875 C 87.625 268.628906 87.039062 268.773438 86.449219 268.914062 C 86.414062 268.925781 86.382812 268.941406 86.339844 268.945312 C 86.332031 268.945312 86.328125 268.941406 86.324219 268.941406 C 83.699219 269.554688 81.085938 269.996094 78.574219 270.3125 C 78.386719 270.53125 78.078125 270.625 77.789062 270.519531 C 77.730469 270.496094 77.683594 270.457031 77.636719 270.421875 C 73.863281 270.847656 70.355469 270.992188 67.441406 271.003906 C 66.304688 272.636719 65.121094 274.664062 63.914062 277.164062 C 62.660156 279.769531 61.832031 282.085938 61.4375 284.03125 C 65.144531 284.097656 80.300781 284.355469 85.800781 284.355469 C 86.371094 284.355469 86.980469 284.339844 87.617188 284.3125 C 87.621094 284.3125 87.625 284.3125 87.625 284.3125 C 87.628906 284.3125 87.628906 284.3125 87.632812 284.3125 C 88.988281 284.253906 90.488281 284.136719 92.070312 283.949219 C 92.089844 283.945312 92.097656 283.941406 92.117188 283.9375 C 92.136719 283.9375 92.152344 283.945312 92.171875 283.941406 C 99.765625 283.039062 109.21875 280.59375 113.925781 275.894531 C 119.171875 270.65625 136.789062 252.125 143.078125 233.773438 C 146.199219 224.664062 143.992188 219.097656 140.417969 217.621094 Z M 140.417969 217.621094 "/>
<path style=" stroke:none;fill-rule:nonzero;fill:rgb(100%,80%,69.803922%);fill-opacity:1;" d="M 212.015625 206.15625 C 211.65625 204.027344 212.980469 201.820312 215.414062 199.9375 C 211.253906 198.578125 205.269531 199.140625 199.023438 199.722656 C 190.601562 200.511719 181.898438 201.328125 175.835938 197.773438 C 168.988281 193.753906 163.167969 189.570312 159.015625 181.164062 C 151.082031 170.714844 143.113281 165.238281 135.960938 165.335938 C 130.785156 165.40625 126.101562 168.339844 122.035156 174.054688 C 119.070312 178.210938 118.367188 183.226562 120.003906 188.554688 C 121.484375 193.386719 124.734375 198.226562 129.28125 202.65625 C 129.324219 202.6875 129.359375 202.722656 129.390625 202.765625 C 135.320312 208.507812 143.425781 213.5625 152.671875 217.023438 C 176.890625 226.09375 213.53125 223.1875 221.007812 211.746094 C 216.09375 211.136719 212.507812 209.097656 212.015625 206.15625 M 157.429688 206.828125 C 157.523438 206.765625 156.121094 201.25 151.15625 196.78125 C 146.554688 192.179688 140.5625 187.664062 137.527344 185.3125 C 136.882812 184.800781 136.957031 184.421875 137.242188 184.285156 C 131.839844 186.425781 133.011719 190.828125 132.335938 190.433594 C 131.828125 190.835938 131.859375 184.207031 136.976562 183.039062 C 141.347656 181.585938 146.09375 184.113281 145.820312 184.421875 C 145.664062 185.226562 143.144531 182.996094 137.445312 184.199219 C 137.394531 184.214844 137.355469 184.238281 137.308594 184.257812 C 137.492188 184.195312 137.738281 184.222656 137.949219 184.359375 C 140.4375 186.003906 146.566406 190.554688 151.335938 195.546875 C 156.617188 200.269531 158.007812 206.851562 157.429688 206.828125 Z M 157.429688 206.828125 "/>
<path style=" stroke:none;fill-rule:nonzero;fill:rgb(100%,9.019608%,23.921569%);fill-opacity:1;" d="M 60.648438 343.875 C 59.167969 345.71875 57.484375 347.535156 55.722656 348.890625 C 63.082031 348.316406 70.769531 349.46875 78.394531 353.535156 C 78.734375 353.71875 78.867188 354.144531 78.679688 354.484375 C 78.5 354.828125 78.070312 354.957031 77.730469 354.773438 C 54.75 342.507812 30.859375 357.699219 18.027344 365.859375 L 17.445312 366.226562 C 12.53125 369.347656 1.019531 376.664062 1.414062 380.144531 C 1.503906 380.917969 2.273438 381.5625 3.699219 382.070312 C 9.730469 384.207031 50.285156 393.414062 84.65625 382.761719 C 92.132812 380.449219 99.023438 376.582031 105.21875 371.980469 C 100.398438 365.035156 80.367188 344.113281 60.648438 343.875 Z M 60.648438 343.875 "/>
<path style=" stroke:none;fill-rule:nonzero;fill:rgb(100%,9.019608%,23.921569%);fill-opacity:1;" d="M 117.847656 306.574219 C 117.570312 307.785156 117.101562 308.945312 116.425781 310.027344 C 113.277344 315.054688 104.585938 328.921875 88.933594 336.347656 C 100.097656 338.667969 114.019531 349.421875 118.898438 359.714844 C 131.230469 346.6875 138.75 333.140625 139.789062 331.21875 C 138.972656 328.195312 138.367188 324.800781 138.011719 321.792969 C 136.351562 317.734375 131.121094 308.441406 117.847656 306.574219 Z M 117.847656 306.574219 "/>
<path style=" stroke:none;fill-rule:nonzero;fill:rgb(100%,9.019608%,23.921569%);fill-opacity:1;" d="M 160.105469 304.832031 C 160.085938 304.410156 160.039062 303.875 159.980469 303.226562 C 159.554688 298.632812 158.625 288.519531 166.097656 278.804688 C 165.417969 279.214844 164.742188 279.617188 164.050781 280.039062 C 155.894531 284.984375 139.050781 300.394531 139.050781 316.445312 C 139.050781 320.050781 139.898438 326.375 141.289062 331.335938 C 142.421875 324.632812 149.058594 315.382812 160.105469 304.832031 Z M 160.105469 304.832031 "/>
<path style=" stroke:none;fill-rule:nonzero;fill:rgb(100%,9.019608%,23.921569%);fill-opacity:1;" d="M 184.042969 286.792969 C 158.441406 305.730469 142.53125 323.550781 142.519531 333.296875 C 142.519531 334.410156 142.722656 335.390625 143.132812 336.261719 C 143.324219 336.621094 143.527344 336.953125 143.730469 337.238281 C 143.738281 337.246094 143.746094 337.257812 143.753906 337.269531 C 143.835938 337.382812 143.917969 337.488281 144.003906 337.589844 C 144.320312 337.953125 144.683594 338.289062 145.105469 338.601562 C 154.851562 345.84375 190.75 335.949219 217.195312 314.496094 C 242.03125 294.347656 261.046875 262.933594 261.414062 255.835938 C 261.449219 255.132812 261.292969 254.921875 261.242188 254.875 C 256.71875 250.355469 216.4375 262.835938 184.042969 286.792969 Z M 184.042969 286.792969 "/>
<path style=" stroke:none;fill-rule:nonzero;fill:rgb(100%,9.019608%,23.921569%);fill-opacity:1;" d="M 176.628906 290.667969 C 178.738281 289.015625 180.933594 287.347656 183.203125 285.667969 C 211.230469 264.9375 246.023438 251.96875 258.320312 252.644531 C 250.949219 248.273438 232.046875 244.222656 188.359375 266.425781 C 178.488281 271.792969 176 286.082031 176.628906 290.667969 Z M 176.628906 290.667969 "/>
<path style=" stroke:none;fill-rule:nonzero;fill:rgb(100%,100%,100%);fill-opacity:1;" d="M 99.902344 118.597656 C 102.453125 112.625 100.113281 103.003906 96.664062 96.117188 C 93.855469 90.5 86.5 84.265625 79.0625 83.554688 C 74.515625 83.121094 70.640625 84.738281 67.523438 88.367188 C 70.589844 88.527344 78.199219 92.160156 77.863281 92.691406 C 77.734375 92.828125 69.792969 89.722656 66.882812 89.40625 C 66.8125 89.386719 66.761719 89.351562 66.71875 89.304688 C 66.71875 89.308594 66.710938 89.3125 66.703125 89.316406 C 66.648438 89.351562 66.59375 89.378906 66.53125 89.402344 C 66.511719 89.410156 66.492188 89.414062 66.46875 89.421875 C 66.394531 89.441406 66.324219 89.445312 66.246094 89.4375 C 66.238281 89.4375 66.226562 89.441406 66.214844 89.441406 C 61.753906 88.863281 57.921875 89.691406 55.132812 91.84375 C 53.0625 93.441406 51.726562 95.667969 51.210938 98.308594 C 51.378906 98.308594 51.542969 98.304688 51.710938 98.304688 C 59.960938 98.304688 68.46875 101.953125 75.050781 108.316406 C 81.734375 114.78125 85.566406 123.285156 85.566406 131.640625 L 85.570312 135.269531 C 92.351562 134.140625 93.394531 128.171875 93.382812 124.617188 C 93.382812 124.609375 93.386719 124.601562 93.386719 124.59375 C 93.390625 124.527344 93.402344 124.460938 93.425781 124.394531 C 93.433594 124.375 93.4375 124.347656 93.449219 124.328125 C 93.472656 124.269531 93.511719 124.222656 93.546875 124.175781 C 93.5625 124.15625 93.574219 124.136719 93.585938 124.117188 C 93.585938 124.113281 93.578125 124.109375 93.578125 124.105469 C 93.753906 122.007812 91.230469 114.265625 91.363281 114.113281 C 91.808594 113.808594 94.941406 120.582031 94.625 123.671875 C 97.09375 122.710938 98.871094 121.015625 99.902344 118.597656 Z M 99.902344 118.597656 "/>
<path style=" stroke:none;fill-rule:nonzero;fill:rgb(100%,100%,100%);fill-opacity:1;" d="M 54.785156 165.195312 C 58.683594 163.464844 62.34375 157.613281 62.34375 155.066406 C 62.34375 154.445312 62.453125 153.867188 62.558594 153.308594 C 62.957031 151.246094 63.390625 148.90625 57.726562 143.203125 C 57.265625 143.292969 56.8125 143.402344 56.355469 143.566406 C 50.246094 144.734375 44.777344 150 44.453125 149.613281 C 44.339844 149.757812 46.476562 145.160156 55.929688 142.394531 C 56.496094 142.277344 57.03125 142.199219 57.558594 142.128906 C 57.570312 142.113281 57.578125 142.089844 57.59375 142.074219 C 57.851562 141.8125 58.265625 141.808594 58.542969 142.042969 C 66.65625 141.429688 69.546875 146.480469 69.210938 146.101562 C 69.160156 146.226562 64.617188 142.878906 59.496094 143.011719 C 64.863281 148.691406 64.359375 151.390625 63.941406 153.574219 C 63.847656 154.089844 63.75 154.578125 63.75 155.066406 C 63.75 156.683594 62.597656 159.34375 60.8125 161.75 C 70.359375 164.296875 75.667969 159.039062 80.792969 153.921875 L 80.847656 153.863281 C 84.191406 150.523438 84.191406 149.113281 84.164062 135.625 L 84.160156 131.640625 C 84.160156 115.226562 68.390625 99.710938 51.710938 99.710938 C 33.453125 99.710938 18.632812 106.464844 18.632812 110.875 C 18.632812 116.117188 13.367188 124.851562 11.234375 126.988281 C 10.695312 127.523438 10.582031 128.441406 10.582031 129.113281 C 10.582031 131.0625 11.523438 133.6875 12.746094 135.34375 C 13.160156 134.679688 13.65625 134.058594 14.226562 133.484375 C 18.382812 129.339844 18.246094 124.941406 18.242188 124.882812 C 18.222656 124.496094 18.523438 124.164062 18.910156 124.148438 C 19.296875 124.128906 19.628906 124.425781 19.648438 124.8125 C 19.652344 124.898438 19.863281 129.84375 15.222656 134.480469 C 13.1875 136.511719 12.246094 139.308594 12.640625 142.144531 C 13.027344 144.902344 14.613281 147.324219 17.148438 149.085938 C 17.160156 148.25 17.300781 147.429688 17.578125 146.636719 C 19.445312 141.273438 22.269531 135.378906 22.300781 135.320312 C 22.46875 134.96875 22.890625 134.820312 23.238281 134.992188 C 23.589844 135.15625 23.738281 135.578125 23.566406 135.925781 C 23.542969 135.984375 20.75 141.808594 18.90625 147.097656 C 18.296875 148.84375 18.492188 150.773438 19.464844 152.675781 C 20.878906 155.429688 23.796875 157.855469 27.285156 159.246094 C 26.71875 157.746094 26.535156 156.207031 26.945312 154.652344 C 28.082031 150.339844 28.09375 143.886719 28.09375 143.820312 C 28.09375 143.433594 28.410156 143.121094 28.796875 143.121094 C 29.1875 143.121094 29.5 143.433594 29.5 143.820312 C 29.5 144.09375 29.488281 150.523438 28.308594 155.007812 C 27.269531 158.933594 30.90625 162.964844 35.394531 167.449219 C 39.484375 171.53125 51.269531 166.753906 54.785156 165.195312 Z M 54.785156 165.195312 "/>
<path style=" stroke:none;fill-rule:nonzero;fill:rgb(100%,100%,100%);fill-opacity:1;" d="M 64.429688 246.777344 C 67.777344 246.960938 70.328125 248.789062 71.859375 252.039062 C 73.867188 251.265625 75.777344 251.027344 77.511719 251.324219 C 78.285156 249.617188 79.703125 246.152344 79.703125 244.539062 C 79.703125 243.558594 79.636719 234.785156 77.40625 229.347656 C 76.445312 226.992188 74.996094 226.179688 73.109375 225.945312 C 73.089844 225.945312 73.078125 225.953125 73.0625 225.953125 C 73.035156 225.953125 73.011719 225.941406 72.988281 225.9375 C 71.898438 225.820312 70.671875 225.886719 69.304688 225.957031 C 68.613281 226 67.894531 226.03125 67.175781 226.042969 C 66.300781 229.503906 63.964844 232.992188 59.6875 235.910156 C 64.972656 241.972656 68.390625 244.3125 68.035156 244.710938 C 67.878906 244.90625 62.074219 240.902344 58.429688 236.367188 C 58.304688 236.3125 58.191406 236.234375 58.113281 236.113281 C 58.078125 236.058594 58.0625 235.996094 58.042969 235.9375 C 54.183594 231.609375 53.136719 224.804688 53.988281 224.863281 C 54.601562 224.753906 53.914062 228.566406 58.792969 234.816406 C 67.164062 229.1875 67.285156 221.863281 64.773438 217.234375 C 62.003906 212.125 55.582031 204.019531 50.144531 204.019531 C 44.613281 204.019531 37.269531 208.898438 35.320312 213.878906 C 33.308594 219.007812 35.101562 228.378906 35.121094 228.476562 C 35.195312 228.855469 34.945312 229.226562 34.5625 229.300781 C 34.183594 229.375 33.8125 229.128906 33.738281 228.746094 C 33.660156 228.34375 31.847656 218.878906 34.007812 213.363281 C 34.230469 212.792969 34.527344 212.230469 34.863281 211.675781 C 27.585938 210.511719 21.300781 215.820312 18.6875 225.515625 C 18.582031 225.898438 18.527344 226.304688 18.511719 226.726562 C 18.511719 226.734375 18.515625 226.742188 18.515625 226.75 C 18.515625 226.757812 18.511719 226.761719 18.511719 226.773438 C 18.304688 232.507812 25.5 240.945312 25.582031 241.035156 C 25.832031 241.328125 25.800781 241.773438 25.503906 242.023438 C 25.210938 242.28125 24.765625 242.242188 24.511719 241.949219 C 24.191406 241.578125 17.472656 233.703125 17.121094 227.476562 C 14.847656 227.601562 13.121094 228.332031 11.996094 229.671875 C 10.203125 231.8125 9.773438 235.589844 10.726562 240.902344 C 11.847656 247.179688 18.691406 254.765625 18.761719 254.839844 C 19.023438 255.125 19.003906 255.574219 18.714844 255.832031 C 18.429688 256.09375 17.980469 256.074219 17.722656 255.785156 C 17.511719 255.554688 13.9375 251.585938 11.472656 246.902344 C 9.125 247.941406 7.664062 249.332031 7.03125 251.152344 C 5.597656 255.292969 8.898438 260.949219 10.875 264.328125 C 14.082031 269.816406 26.613281 280.730469 34.082031 282.742188 C 34.042969 277.550781 35.269531 272.070312 37.796875 267.394531 C 43.394531 257.039062 55.429688 246.285156 64.429688 246.777344 Z M 64.429688 246.777344 "/>
<path style=" stroke:none;fill-rule:nonzero;fill:rgb(100%,100%,100%);fill-opacity:1;" d="M 80.96875 285.730469 C 78.808594 285.707031 76.347656 285.675781 73.902344 285.636719 C 71.292969 290.324219 65.675781 293.101562 62.25 291.367188 C 61.136719 290.800781 59.289062 289.171875 59.894531 284.726562 C 59.894531 284.71875 59.894531 284.714844 59.894531 284.707031 C 59.894531 284.695312 59.902344 284.683594 59.902344 284.667969 C 60.191406 282.613281 61.003906 279.96875 62.648438 276.558594 C 69.410156 262.519531 74.921875 263.566406 76.453125 264.222656 C 78.199219 264.96875 79.171875 266.890625 78.976562 268.847656 C 81.109375 268.566406 83.308594 268.1875 85.519531 267.6875 C 84.816406 260.414062 82.792969 255.542969 79.640625 253.597656 C 77.585938 252.328125 75.085938 252.261719 72.21875 253.398438 C 72.148438 253.425781 72.078125 253.429688 72.007812 253.433594 C 71.941406 253.5 71.863281 253.554688 71.773438 253.59375 C 71.582031 253.667969 71.375 253.652344 71.199219 253.566406 C 68.195312 254.980469 62.070312 261.222656 61.941406 261.210938 C 61.441406 260.957031 66.820312 254.148438 70.601562 252.660156 C 69.289062 249.851562 67.195312 248.335938 64.351562 248.179688 C 56.8125 247.765625 44.984375 257.058594 39.035156 268.058594 C 34.164062 277.070312 34.386719 289.65625 39.527344 296.113281 C 41.339844 298.386719 44.519531 300.792969 49.496094 299.765625 C 47.28125 297.03125 44.96875 287.960938 45.609375 287.886719 C 45.785156 287.890625 48.730469 297 50.769531 299.597656 C 50.898438 299.644531 51.015625 299.722656 51.097656 299.835938 C 51.097656 299.835938 51.101562 299.835938 51.101562 299.839844 C 53.371094 303 56.089844 304.570312 59.183594 304.507812 C 65.261719 304.382812 72.78125 297.886719 80.96875 285.730469 Z M 80.96875 285.730469 "/>
<path style=" stroke:none;fill-rule:nonzero;fill:rgb(100%,100%,100%);fill-opacity:1;" d="M 66.613281 335.835938 C 70.296875 338.636719 75.339844 339.429688 80.453125 338.019531 C 100.75 332.421875 111.648438 315.003906 115.234375 309.28125 C 117.25 306.058594 117.234375 301.945312 115.199219 298.269531 C 113.371094 294.980469 110.378906 292.878906 107.261719 292.609375 C 107.148438 295.667969 106.648438 298.5 106.308594 300.394531 C 106.128906 301.394531 105.976562 302.257812 105.976562 302.625 C 105.976562 303.015625 105.660156 303.328125 105.273438 303.328125 C 104.882812 303.328125 104.566406 303.015625 104.566406 302.625 C 104.566406 302.132812 104.71875 301.296875 104.921875 300.148438 C 105.625 296.238281 107.042969 288.242188 104.035156 282.878906 C 100.277344 284.085938 96.339844 284.820312 92.949219 285.25 C 93.511719 295.546875 80.09375 304.496094 74.191406 307.917969 C 68.757812 311.070312 65.070312 312.714844 63.480469 311.207031 C 62.425781 310.207031 62.664062 308.148438 64.25 304.671875 C 62.511719 305.457031 60.828125 305.878906 59.214844 305.914062 C 57.976562 305.9375 56.804688 305.730469 55.6875 305.320312 C 53.070312 311.261719 52.398438 315.707031 53.730469 318.503906 C 54.566406 320.265625 56.167969 321.40625 58.769531 322.089844 C 63.289062 323.277344 68.734375 326.28125 69.644531 327.191406 C 69.921875 327.464844 69.921875 327.910156 69.644531 328.1875 C 69.371094 328.460938 68.921875 328.460938 68.648438 328.1875 C 68.089844 327.625 64.679688 325.65625 61.050781 324.300781 C 61.289062 329.183594 63.230469 333.261719 66.613281 335.835938 Z M 66.613281 335.835938 "/>
<path style=" stroke:none;fill-rule:nonzero;fill:rgb(100%,100%,100%);fill-opacity:1;" d="M 86.582031 337.394531 C 84.753906 338.152344 82.835938 338.816406 80.828125 339.375 C 75.289062 340.902344 69.800781 340.019531 65.757812 336.953125 C 65.679688 336.886719 65.609375 336.816406 65.53125 336.753906 C 64.871094 337.875 63.5 340.117188 61.710938 342.507812 C 81.574219 343.449219 101.402344 364.078125 106.34375 371.132812 C 110.515625 367.925781 114.367188 364.402344 117.851562 360.8125 C 113.074219 350.054688 97.816406 338.597656 86.582031 337.394531 Z M 86.582031 337.394531 "/>
<path style=" stroke:none;fill-rule:nonzero;fill:rgb(100%,100%,100%);fill-opacity:1;" d="M 161.382812 303.09375 C 161.398438 303.269531 161.414062 303.433594 161.425781 303.589844 C 165.53125 299.75 170.207031 295.75 175.394531 291.640625 C 174.566406 288.144531 175.847656 276.980469 182.222656 269.632812 C 178.332031 271.71875 174.253906 274.003906 169.992188 276.5 C 159.863281 286.664062 160.886719 297.757812 161.382812 303.09375 Z M 161.382812 303.09375 "/>
<path style=" stroke:none;fill-rule:nonzero;fill:rgb(100%,100%,100%);fill-opacity:1;" d="M 161.304688 261.609375 C 151.875 264.414062 141.738281 273.464844 138.707031 281.785156 C 137.3125 285.609375 137.398438 289.042969 138.941406 292.011719 C 140.871094 288.585938 143.6875 285.074219 147.523438 281.9375 C 147.824219 281.691406 148.265625 281.734375 148.511719 282.035156 C 148.757812 282.335938 148.714844 282.78125 148.414062 283.023438 C 139.976562 289.933594 136.644531 298.640625 137.121094 303.804688 C 137.246094 305.171875 137.695312 306.925781 139.03125 308.058594 C 143.285156 294.703125 156.367188 283.054688 163.320312 278.839844 C 164.421875 278.171875 165.507812 277.519531 166.59375 276.878906 C 166.636719 276.851562 166.683594 276.824219 166.730469 276.796875 C 167.5 276.339844 168.265625 275.886719 169.03125 275.441406 C 169.089844 275.40625 169.148438 275.375 169.203125 275.339844 C 169.230469 275.324219 169.257812 275.304688 169.289062 275.289062 C 169.292969 275.289062 169.292969 275.289062 169.296875 275.285156 C 173.105469 273.054688 176.835938 270.949219 180.464844 268.980469 C 180.398438 265.347656 179.414062 262.859375 177.457031 261.402344 C 174.484375 259.1875 169.199219 259.253906 161.304688 261.609375 Z M 161.304688 261.609375 "/>
<path style=" stroke:none;fill-rule:nonzero;fill:rgb(100%,100%,100%);fill-opacity:1;" d="M 229.179688 198.769531 C 225.238281 199.746094 222.3125 201.613281 222.644531 202.941406 C 222.972656 204.273438 226.433594 204.558594 230.375 203.585938 C 234.316406 202.609375 237.238281 200.738281 236.910156 199.410156 C 236.578125 198.082031 233.117188 197.796875 229.179688 198.769531 Z M 229.179688 198.769531 "/>
<path style=" stroke:none;fill-rule:nonzero;fill:rgb(100%,100%,100%);fill-opacity:1;" d="M 252.457031 140.324219 C 250.964844 139.972656 246.316406 145.410156 238.019531 161.5625 C 239.515625 169.617188 234.15625 184.96875 229.699219 190.429688 C 228.589844 191.78125 227.207031 193.148438 226.164062 193.207031 C 224.390625 193.3125 224.199219 191.210938 224.285156 188.683594 C 224.378906 185.890625 225.089844 182.375 225.417969 179.984375 C 225.125 179.988281 223.273438 180.644531 222.003906 180.242188 C 219.203125 179.363281 217.382812 175.414062 216.730469 167.882812 C 216.355469 170.210938 215.792969 172.710938 215.042969 175.285156 C 211.902344 186.003906 206.675781 193.914062 203.367188 192.945312 C 200.058594 191.980469 199.917969 182.503906 203.058594 171.785156 C 206.199219 161.066406 211.425781 153.15625 214.734375 154.125 C 215.390625 154.3125 215.914062 154.851562 216.320312 155.652344 C 215.015625 128.277344 202.582031 113.398438 191.847656 108.910156 C 185.46875 106.246094 175.304688 106.121094 166.980469 111.855469 C 160.5625 116.277344 153.054688 125.742188 153.726562 145.714844 C 154.929688 181.394531 163.933594 189.378906 176.527344 196.761719 C 182.191406 200.085938 190.667969 199.292969 198.867188 198.523438 C 205.726562 197.882812 212.269531 197.277344 216.777344 199.160156 C 219.335938 197.566406 222.726562 196.292969 226.550781 195.648438 C 229.75 195.113281 232.808594 195.09375 235.441406 195.492188 C 247.324219 183.613281 253.34375 166.347656 253.34375 144.179688 C 253.34375 140.632812 252.546875 140.34375 252.457031 140.324219 Z M 252.457031 140.324219 "/>
<path style=" stroke:none;fill-rule:nonzero;fill:rgb(100%,100%,100%);fill-opacity:1;" d="M 229 180.75 C 229.992188 181.09375 231.464844 178.4375 232.492188 175.691406 C 233.277344 173.601562 233.386719 171.042969 233.367188 169.851562 C 232.136719 171.808594 230.742188 174.234375 229.351562 175.777344 C 228.886719 177.429688 228.007812 180.40625 229 180.75 Z M 229 180.75 "/>
<path style=" stroke:none;fill-rule:nonzero;fill:rgb(100%,100%,100%);fill-opacity:1;" d="M 208.613281 164.519531 C 206.867188 169.121094 206.511719 172.421875 207.539062 172.808594 C 208.570312 173.199219 210.597656 170.527344 212.34375 165.925781 C 214.082031 161.320312 214.34375 158.429688 213.3125 158.042969 C 212.285156 157.65625 210.355469 159.914062 208.613281 164.519531 Z M 208.613281 164.519531 "/>
<path style=" stroke:none;fill-rule:nonzero;fill:rgb(0%,0%,0%);fill-opacity:1;" d="M 146.828125 87.84375 C 147.214844 87.824219 147.515625 87.496094 147.496094 87.109375 C 146.289062 60.289062 155.398438 45.691406 160.976562 41.292969 C 162.792969 39.859375 164.113281 39.539062 164.742188 39.71875 C 168.910156 40.910156 189.5 55.292969 198.714844 72.789062 C 198.898438 73.132812 199.324219 73.261719 199.667969 73.082031 C 200.015625 72.902344 200.144531 72.476562 199.960938 72.132812 C 190.585938 54.347656 169.960938 39.75 165.125 38.371094 C 163.839844 38.003906 162.054688 38.648438 160.101562 40.191406 C 152.917969 45.859375 144.933594 61.566406 146.09375 87.171875 C 146.109375 87.558594 146.4375 87.859375 146.828125 87.84375 Z M 146.828125 87.84375 "/>
<path style=" stroke:none;fill-rule:nonzero;fill:rgb(0%,0%,0%);fill-opacity:1;" d="M 160.429688 81.390625 C 165.222656 76.601562 177.09375 72.851562 187.453125 72.851562 C 187.695312 72.851562 187.917969 72.730469 188.046875 72.527344 C 188.179688 72.324219 188.191406 72.070312 188.089844 71.851562 C 185.351562 66.039062 177.496094 54.046875 167.371094 50.253906 C 167.039062 50.128906 166.660156 50.273438 166.496094 50.59375 C 162.402344 58.675781 159.226562 73.519531 159.226562 80.890625 C 159.226562 81.175781 159.398438 81.433594 159.660156 81.542969 C 159.925781 81.648438 160.226562 81.589844 160.429688 81.390625 M 167.46875 51.824219 C 176.597656 55.59375 183.730469 66.4375 186.332031 71.472656 C 176.726562 71.714844 166.085938 74.984375 160.6875 79.296875 C 161.058594 72.488281 163.613281 59.804688 167.46875 51.824219 Z M 167.46875 51.824219 "/>
<path style=" stroke:none;fill-rule:nonzero;fill:rgb(0%,0%,0%);fill-opacity:1;" d="M 158.921875 103.308594 C 155.921875 107.882812 155.773438 110.570312 155.78125 110.535156 C 156.152344 110.710938 157.351562 106.183594 161.601562 101.53125 C 165.644531 96.667969 173.929688 93.617188 181.335938 94.570312 C 197.007812 95.457031 210.101562 110.589844 210.039062 110.195312 C 210.070312 110.1875 208.585938 107.6875 204.308594 103.875 C 200.097656 100.234375 192.8125 94.464844 181.070312 93.304688 C 169.171875 92.359375 161.578125 98.832031 158.921875 103.308594 Z M 158.921875 103.308594 "/>
<path style=" stroke:none;fill-rule:nonzero;fill:rgb(0%,0%,0%);fill-opacity:1;" d="M 267.261719 135.632812 C 275.804688 126.914062 283.085938 105.238281 283.085938 100.722656 C 283.085938 96.648438 271.480469 94.566406 248.597656 94.539062 C 236.492188 69.085938 212.292969 44.632812 179.054688 24.933594 C 136.785156 -0.121094 109.648438 -0.0429688 93.4375 0.00390625 L 91.429688 0.0078125 C 91.148438 0.0078125 90.890625 0.179688 90.78125 0.441406 C 90.671875 0.703125 90.734375 1.007812 90.933594 1.207031 C 106.410156 16.660156 118.601562 39.429688 120.871094 56.976562 C 74.558594 46.992188 34.921875 68.316406 22.90625 80.316406 C 22.71875 80.503906 22.652344 80.777344 22.734375 81.027344 C 22.8125 81.277344 23.027344 81.464844 23.285156 81.507812 C 36.628906 83.761719 48.589844 92.71875 51.015625 94.621094 C 50.421875 95.753906 50.011719 96.996094 49.78125 98.328125 C 31.582031 98.769531 17.226562 105.371094 17.226562 110.875 C 17.226562 115.574219 12.324219 123.910156 10.238281 125.992188 C 9.535156 126.699219 9.175781 127.746094 9.175781 129.113281 C 9.175781 131.574219 10.429688 134.839844 12.03125 136.691406 C 11.261719 138.4375 10.972656 140.378906 11.25 142.339844 C 11.738281 145.839844 13.898438 148.84375 17.332031 150.855469 C 17.5 151.675781 17.796875 152.5 18.210938 153.316406 C 19.960938 156.71875 23.746094 159.648438 28.132812 161.027344 C 29.664062 163.707031 32.183594 166.230469 34.398438 168.441406 C 34.996094 169.039062 35.710938 169.472656 36.511719 169.789062 C 30.507812 179.566406 30.21875 192.886719 30.207031 193.464844 C 30.203125 193.71875 30.335938 193.953125 30.550781 194.082031 C 30.765625 194.210938 31.035156 194.214844 31.253906 194.089844 C 62.839844 176.300781 87.777344 178.675781 97.167969 179.570312 C 98.136719 179.660156 98.953125 179.738281 99.636719 179.78125 C 99.273438 180.804688 98.949219 181.722656 98.675781 182.554688 C 95.367188 183.832031 92.210938 185.589844 89.324219 187.828125 C 82.207031 193.351562 73.550781 204.191406 72.433594 224.5 C 71.386719 224.441406 70.300781 224.5 69.226562 224.554688 C 68.644531 224.589844 68.046875 224.617188 67.449219 224.628906 C 67.855469 221.730469 67.289062 218.917969 66.011719 216.5625 C 62.96875 210.957031 56.234375 202.613281 50.144531 202.613281 C 45.136719 202.613281 38.980469 206.105469 35.71875 210.402344 C 27.410156 208.691406 20.222656 214.414062 17.328125 225.148438 C 17.25 225.449219 17.199219 225.757812 17.160156 226.070312 C 14.425781 226.195312 12.324219 227.097656 10.917969 228.773438 C 8.816406 231.28125 8.296875 235.328125 9.339844 241.148438 C 9.605469 242.632812 10.160156 244.15625 10.851562 245.644531 C 8.191406 246.839844 6.449219 248.53125 5.703125 250.691406 C 4.054688 255.441406 7.425781 261.214844 9.65625 265.035156 C 12.757812 270.339844 25.820312 282.265625 34.132812 284.203125 C 34.402344 289.140625 35.828125 293.726562 38.425781 296.988281 C 41.40625 300.726562 45.59375 302.148438 50.253906 301.035156 C 51.507812 302.6875 52.890625 303.933594 54.398438 304.746094 C 51.558594 311.167969 50.921875 315.878906 52.457031 319.109375 C 53.472656 321.242188 55.417969 322.664062 58.410156 323.449219 C 58.808594 323.550781 59.214844 323.675781 59.621094 323.804688 C 59.734375 328.695312 61.417969 332.886719 64.449219 335.8125 C 63.179688 337.984375 57.644531 347.042969 52.425781 349.257812 C 38.21875 351.359375 25.507812 359.433594 17.269531 364.675781 L 16.691406 365.039062 C 6.386719 371.585938 -0.390625 376.6875 0.0195312 380.300781 C 0.171875 381.652344 1.25 382.691406 3.230469 383.394531 C 9.328125 385.554688 50.339844 394.867188 85.074219 384.101562 C 92.871094 381.6875 100.039062 377.625 106.453125 372.800781 C 106.492188 372.789062 106.535156 372.78125 106.574219 372.753906 C 106.648438 372.707031 106.710938 372.644531 106.757812 372.574219 C 111.21875 369.195312 115.3125 365.445312 118.996094 361.632812 C 119.167969 361.554688 119.292969 361.421875 119.359375 361.257812 C 130.601562 349.53125 137.988281 337.265625 140.347656 333.109375 C 140.800781 334.503906 141.296875 335.765625 141.84375 336.808594 C 142.066406 337.285156 142.339844 337.726562 142.664062 338.148438 C 142.675781 338.171875 142.695312 338.191406 142.710938 338.214844 C 142.789062 338.320312 142.871094 338.417969 142.953125 338.519531 C 143.074219 338.664062 143.199219 338.800781 143.324219 338.921875 C 143.335938 338.933594 143.351562 338.933594 143.363281 338.945312 C 143.640625 339.21875 143.933594 339.484375 144.265625 339.730469 C 149.359375 343.511719 160.960938 343.085938 175.300781 338.574219 C 190.28125 333.871094 205.875 325.488281 218.082031 315.585938 C 241.871094 296.285156 262.390625 264.160156 262.816406 255.910156 C 262.863281 254.996094 262.671875 254.308594 262.238281 253.878906 C 259.277344 250.925781 251.945312 246.261719 236.027344 248.203125 C 222.929688 249.800781 206.78125 255.480469 187.851562 265.105469 C 187.839844 265.113281 187.824219 265.113281 187.808594 265.121094 C 187.765625 265.144531 187.722656 265.171875 187.675781 265.199219 C 185.761719 266.171875 183.816406 267.1875 181.84375 268.242188 C 181.652344 264.527344 180.492188 261.90625 178.296875 260.277344 C 178.121094 260.144531 177.933594 260.019531 177.742188 259.902344 C 178.539062 256.957031 180.835938 247.554688 178.492188 245.210938 C 173.820312 240.550781 161.722656 239.277344 148.953125 241.558594 C 149.816406 240.308594 150.753906 238.625 151.648438 236.683594 C 153.859375 236.257812 167.164062 234.070312 177.359375 241.132812 C 177.5625 241.277344 177.832031 241.300781 178.058594 241.195312 C 178.285156 241.085938 178.441406 240.863281 178.460938 240.617188 C 178.5 240.171875 179.28125 230.25 176.585938 223.5 C 197.011719 225.144531 217.261719 220.914062 222.46875 212.105469 C 222.507812 212.035156 222.527344 211.964844 222.542969 211.890625 C 224.636719 212.019531 226.921875 211.90625 229.285156 211.507812 C 238.074219 210.035156 244.597656 205.242188 243.847656 200.804688 C 243.433594 198.332031 240.839844 196.496094 237.101562 195.605469 C 242.945312 189.5625 247.359375 182.21875 250.308594 173.621094 C 258.714844 161.933594 265.738281 146.894531 267.261719 135.632812 M 281.675781 100.722656 C 281.675781 104.753906 275.132812 124.199219 267.496094 133.28125 C 267.769531 129.203125 267.207031 125.746094 265.566406 123.3125 C 263.691406 120.539062 260.632812 119.28125 256.453125 119.539062 C 255.25 111.65625 252.8125 103.761719 249.238281 95.949219 C 273.144531 96.023438 281.675781 98.550781 281.675781 100.722656 M 24.882812 80.375 C 37.867188 68.335938 76.5625 48.441406 121.539062 58.546875 C 121.761719 58.597656 121.992188 58.535156 122.160156 58.382812 C 122.332031 58.234375 122.417969 58.007812 122.394531 57.785156 C 120.472656 40.269531 108.503906 17.320312 93.105469 1.410156 L 93.441406 1.410156 C 109.507812 1.363281 136.402344 1.285156 178.335938 26.140625 C 211.472656 45.78125 235.539062 70.140625 247.46875 95.445312 C 247.484375 95.5 247.503906 95.546875 247.535156 95.589844 C 251.277344 103.566406 253.8125 111.632812 255.050781 119.675781 C 254.191406 119.792969 253.289062 119.957031 252.34375 120.1875 C 251.964844 120.277344 251.734375 120.660156 251.828125 121.035156 C 251.917969 121.414062 252.300781 121.644531 252.675781 121.550781 C 258.378906 120.164062 262.316406 121.023438 264.394531 124.097656 C 269.722656 131.980469 262.355469 152.851562 251.671875 169.144531 C 253.730469 161.605469 254.777344 153.214844 254.777344 143.980469 C 254.777344 141.933594 254.578125 139.171875 252.804688 138.753906 C 251.691406 138.492188 248.304688 137.691406 235.308594 163.652344 C 230.3125 173.625 225.792969 179.539062 222.800781 178.832031 C 221.128906 178.4375 217.871094 175.359375 217.871094 160.21875 C 217.871094 134.605469 207.878906 113.878906 192.417969 107.414062 C 185.6875 104.601562 174.96875 104.460938 166.207031 110.5 C 159.5 115.121094 151.652344 124.957031 152.347656 145.5625 C 152.816406 159.496094 154.46875 169.285156 157.054688 176.503906 C 149.847656 168.167969 142.605469 163.839844 135.941406 163.929688 C 130.296875 164.007812 125.230469 167.140625 120.886719 173.238281 C 119.257812 175.523438 118.257812 178.042969 117.890625 180.714844 C 117.726562 180.6875 117.5625 180.65625 117.394531 180.628906 C 122.851562 156.59375 125.445312 140.113281 122.628906 127.304688 C 120.003906 115.375 113.015625 106.25 96.863281 93.664062 C 93.34375 88.25 86.316406 82.835938 79.191406 82.15625 C 74.015625 81.660156 69.460938 83.6875 66 88.011719 C 61.328125 87.484375 57.277344 88.414062 54.273438 90.730469 C 53.273438 91.5 52.433594 92.398438 51.738281 93.402344 C 49.007812 91.277344 37.71875 82.976562 24.882812 80.375 M 232.492188 175.691406 C 231.464844 178.4375 229.992188 181.09375 229 180.75 C 228.007812 180.40625 228.886719 177.429688 229.351562 175.777344 C 230.742188 174.234375 232.136719 171.808594 233.367188 169.851562 C 233.386719 171.042969 233.277344 173.601562 232.492188 175.691406 M 91.363281 114.113281 C 91.230469 114.265625 93.753906 122.007812 93.578125 124.105469 C 93.578125 124.109375 93.585938 124.113281 93.585938 124.117188 C 93.574219 124.136719 93.5625 124.15625 93.546875 124.175781 C 93.511719 124.222656 93.472656 124.269531 93.449219 124.328125 C 93.4375 124.347656 93.433594 124.375 93.425781 124.394531 C 93.402344 124.460938 93.390625 124.527344 93.386719 124.59375 C 93.386719 124.601562 93.382812 124.609375 93.382812 124.617188 C 93.394531 128.171875 92.351562 134.140625 85.570312 135.269531 L 85.566406 131.640625 C 85.566406 123.285156 81.734375 114.78125 75.050781 108.316406 C 68.46875 101.953125 59.960938 98.304688 51.710938 98.304688 C 51.542969 98.304688 51.378906 98.308594 51.210938 98.308594 C 51.726562 95.667969 53.0625 93.441406 55.132812 91.84375 C 57.921875 89.691406 61.753906 88.863281 66.214844 89.441406 C 66.226562 89.441406 66.238281 89.4375 66.246094 89.4375 C 66.324219 89.445312 66.394531 89.441406 66.46875 89.421875 C 66.492188 89.414062 66.511719 89.410156 66.53125 89.402344 C 66.59375 89.378906 66.648438 89.351562 66.703125 89.316406 C 66.710938 89.3125 66.71875 89.308594 66.71875 89.304688 C 66.761719 89.351562 66.8125 89.386719 66.882812 89.40625 C 69.792969 89.722656 77.734375 92.828125 77.863281 92.691406 C 78.199219 92.160156 70.589844 88.527344 67.523438 88.367188 C 70.640625 84.738281 74.515625 83.121094 79.0625 83.554688 C 86.5 84.265625 93.855469 90.5 96.664062 96.117188 C 100.113281 103.003906 102.453125 112.625 99.902344 118.597656 C 98.871094 121.015625 97.09375 122.710938 94.625 123.671875 C 94.941406 120.582031 91.808594 113.808594 91.363281 114.113281 M 101.199219 119.148438 C 103.925781 112.757812 101.589844 103.414062 98.550781 96.789062 C 124.90625 117.941406 127.265625 130.84375 116 180.421875 C 110.730469 179.75 105.398438 180.289062 100.367188 181.945312 C 100.652344 181.132812 100.96875 180.246094 101.320312 179.261719 C 105.929688 166.457031 114.480469 142.683594 100.371094 120.710938 C 100.675781 120.21875 100.960938 119.707031 101.199219 119.148438 M 35.394531 167.449219 C 30.90625 162.964844 27.269531 158.933594 28.308594 155.007812 C 29.488281 150.523438 29.5 144.09375 29.5 143.820312 C 29.5 143.433594 29.1875 143.121094 28.796875 143.121094 C 28.410156 143.121094 28.09375 143.433594 28.09375 143.820312 C 28.09375 143.886719 28.082031 150.339844 26.945312 154.652344 C 26.535156 156.207031 26.71875 157.746094 27.285156 159.246094 C 23.796875 157.855469 20.878906 155.429688 19.464844 152.675781 C 18.492188 150.773438 18.296875 148.84375 18.90625 147.097656 C 20.75 141.808594 23.542969 135.984375 23.566406 135.925781 C 23.738281 135.578125 23.589844 135.15625 23.238281 134.992188 C 22.890625 134.820312 22.46875 134.96875 22.300781 135.320312 C 22.269531 135.378906 19.445312 141.273438 17.578125 146.636719 C 17.300781 147.429688 17.160156 148.25 17.148438 149.085938 C 14.613281 147.324219 13.027344 144.902344 12.640625 142.144531 C 12.246094 139.308594 13.1875 136.511719 15.222656 134.480469 C 19.863281 129.84375 19.652344 124.898438 19.648438 124.8125 C 19.628906 124.425781 19.296875 124.128906 18.910156 124.148438 C 18.523438 124.164062 18.222656 124.496094 18.242188 124.882812 C 18.246094 124.941406 18.382812 129.339844 14.226562 133.484375 C 13.65625 134.058594 13.160156 134.679688 12.746094 135.34375 C 11.523438 133.6875 10.582031 131.0625 10.582031 129.113281 C 10.582031 128.441406 10.695312 127.523438 11.234375 126.988281 C 13.367188 124.851562 18.632812 116.117188 18.632812 110.875 C 18.632812 106.464844 33.453125 99.710938 51.710938 99.710938 C 68.390625 99.710938 84.160156 115.226562 84.160156 131.640625 L 84.164062 135.625 C 84.191406 149.113281 84.191406 150.523438 80.847656 153.863281 L 80.792969 153.921875 C 75.667969 159.039062 70.359375 164.296875 60.8125 161.75 C 62.597656 159.34375 63.75 156.683594 63.75 155.066406 C 63.75 154.578125 63.847656 154.089844 63.941406 153.574219 C 64.359375 151.390625 64.863281 148.691406 59.496094 143.011719 C 64.617188 142.878906 69.160156 146.226562 69.210938 146.101562 C 69.546875 146.480469 66.65625 141.429688 58.542969 142.042969 C 58.265625 141.808594 57.851562 141.8125 57.59375 142.074219 C 57.578125 142.089844 57.570312 142.113281 57.558594 142.128906 C 57.03125 142.199219 56.496094 142.277344 55.929688 142.394531 C 46.476562 145.160156 44.339844 149.757812 44.453125 149.613281 C 44.777344 150 50.246094 144.734375 56.355469 143.566406 C 56.8125 143.402344 57.265625 143.292969 57.726562 143.203125 C 63.390625 148.90625 62.957031 151.246094 62.558594 153.308594 C 62.453125 153.867188 62.34375 154.445312 62.34375 155.066406 C 62.34375 157.613281 58.683594 163.464844 54.785156 165.195312 C 51.269531 166.753906 39.484375 171.53125 35.394531 167.449219 M 97.300781 178.171875 C 87.902344 177.277344 63.113281 174.929688 31.671875 192.257812 C 31.894531 188.679688 32.96875 178.011719 37.917969 170.195312 C 43.390625 171.324219 51.546875 168.171875 55.359375 166.480469 C 56.992188 165.753906 58.535156 164.457031 59.839844 162.957031 C 70.5625 166.113281 76.519531 160.167969 81.785156 154.914062 L 81.84375 154.859375 C 85.496094 151.207031 85.59375 149.4375 85.574219 136.699219 C 91.308594 135.839844 94.632812 131.660156 94.773438 125.109375 C 96.699219 124.429688 98.269531 123.375 99.480469 121.945312 C 112.65625 142.992188 104.65625 165.835938 100.132812 178.402344 C 99.417969 178.371094 98.464844 178.28125 97.300781 178.171875 M 90.1875 188.9375 C 93.058594 186.710938 96.207031 184.976562 99.507812 183.738281 C 99.527344 183.730469 99.550781 183.726562 99.570312 183.714844 C 105.371094 181.554688 111.644531 180.972656 117.765625 182.121094 C 117.648438 184.320312 117.933594 186.617188 118.65625 188.964844 C 120.183594 193.949219 123.507812 198.929688 128.144531 203.492188 C 128.097656 210.035156 126.585938 220.328125 123.753906 233.308594 C 119.640625 240.140625 114.765625 246.742188 107.308594 255.804688 C 107.164062 255.980469 107.007812 256.148438 106.859375 256.320312 C 96.796875 256.222656 88.351562 251.65625 81.0625 242.355469 C 80.933594 239.046875 80.457031 233.078125 78.714844 228.8125 C 77.601562 226.105469 75.839844 225.042969 73.832031 224.664062 C 74.902344 204.824219 83.292969 194.292969 90.1875 188.9375 M 138.167969 293.480469 C 136.222656 297.421875 135.464844 301.148438 135.71875 303.933594 C 135.953125 306.46875 136.953125 308.371094 138.609375 309.496094 C 137.996094 311.78125 137.644531 314.101562 137.644531 316.445312 C 137.644531 316.917969 137.660156 317.441406 137.6875 317.992188 C 134.902344 313.230469 129.144531 306.757812 118.074219 305.191406 C 118.335938 302.683594 117.792969 300.046875 116.429688 297.589844 C 114.355469 293.855469 110.898438 291.449219 107.285156 291.175781 C 107.261719 288.167969 106.792969 285.050781 105.390625 282.417969 C 109.074219 281.105469 112.492188 279.3125 114.917969 276.890625 C 118.144531 273.671875 123.542969 267.988281 128.996094 260.96875 C 131.457031 260.476562 134.351562 259.746094 137.414062 258.964844 C 144.511719 257.160156 153.339844 254.914062 155.214844 256.507812 C 155.359375 256.628906 155.511719 256.824219 155.484375 257.25 C 155.011719 260.136719 154.316406 262.46875 154.078125 263.230469 C 146.570312 267.464844 139.863281 274.496094 137.382812 281.304688 C 135.742188 285.804688 136.023438 290.003906 138.167969 293.480469 M 113.925781 275.894531 C 109.21875 280.59375 99.765625 283.039062 92.171875 283.941406 C 92.152344 283.945312 92.136719 283.9375 92.117188 283.9375 C 92.097656 283.941406 92.089844 283.945312 92.070312 283.949219 C 90.488281 284.136719 88.988281 284.253906 87.632812 284.3125 C 87.628906 284.3125 87.628906 284.3125 87.625 284.3125 C 87.625 284.3125 87.621094 284.3125 87.617188 284.3125 C 86.980469 284.339844 86.371094 284.355469 85.800781 284.355469 C 80.300781 284.355469 65.144531 284.097656 61.4375 284.03125 C 61.832031 282.085938 62.660156 279.769531 63.914062 277.164062 C 65.121094 274.664062 66.304688 272.636719 67.441406 271.003906 C 70.355469 270.992188 73.863281 270.847656 77.636719 270.421875 C 77.683594 270.457031 77.730469 270.496094 77.789062 270.519531 C 78.078125 270.625 78.386719 270.53125 78.574219 270.3125 C 81.085938 269.996094 83.699219 269.554688 86.324219 268.941406 C 86.328125 268.941406 86.332031 268.945312 86.339844 268.945312 C 86.382812 268.941406 86.414062 268.925781 86.449219 268.914062 C 87.039062 268.773438 87.625 268.628906 88.207031 268.46875 C 88.300781 268.460938 88.394531 268.441406 88.476562 268.398438 C 95.644531 266.449219 102.679688 263.121094 107.671875 257.527344 C 107.917969 257.253906 108.164062 256.980469 108.394531 256.695312 C 119.617188 243.054688 125.054688 234.9375 130.773438 223.296875 C 133.480469 217.773438 137.675781 216.484375 140.417969 217.621094 C 143.992188 219.097656 146.199219 224.664062 143.078125 233.773438 C 136.789062 252.125 119.171875 270.65625 113.925781 275.894531 M 69.652344 301.179688 C 73.027344 298.390625 76.589844 294.371094 80.324219 289.132812 L 87.550781 295.332031 C 83.851562 299.898438 78.457031 303.648438 75.140625 305.707031 L 69.652344 301.179688 M 81.144531 287.980469 C 81.640625 287.257812 82.148438 286.507812 82.652344 285.742188 C 83.417969 285.75 84.125 285.753906 84.753906 285.757812 C 83.816406 286.511719 82.824219 287.480469 81.8125 288.511719 L 81.789062 288.535156 L 81.144531 287.980469 M 84.59375 248.371094 C 88.476562 252.089844 92.667969 254.679688 97.222656 256.175781 L 87.777344 267.132812 C 87.488281 267.214844 87.195312 267.289062 86.902344 267.359375 C 86.136719 259.699219 83.976562 254.6875 80.46875 252.460938 L 84.59375 248.371094 M 79.140625 251.792969 C 79.058594 251.757812 78.96875 251.730469 78.882812 251.695312 C 79.566406 250.171875 81.058594 246.613281 81.105469 244.636719 C 81.921875 245.605469 82.753906 246.515625 83.59375 247.378906 L 79.140625 251.792969 M 98.699219 256.621094 C 100.910156 257.222656 103.203125 257.582031 105.589844 257.6875 C 101.40625 261.878906 95.949219 264.632812 90.25 266.425781 L 98.699219 256.621094 M 34.082031 282.742188 C 26.613281 280.730469 14.082031 269.816406 10.875 264.328125 C 8.898438 260.949219 5.597656 255.292969 7.03125 251.152344 C 7.664062 249.332031 9.125 247.941406 11.472656 246.902344 C 13.9375 251.585938 17.511719 255.554688 17.722656 255.785156 C 17.980469 256.074219 18.429688 256.09375 18.714844 255.832031 C 19.003906 255.574219 19.023438 255.125 18.761719 254.839844 C 18.691406 254.765625 11.847656 247.179688 10.726562 240.902344 C 9.773438 235.589844 10.203125 231.8125 11.996094 229.671875 C 13.121094 228.332031 14.847656 227.601562 17.121094 227.476562 C 17.472656 233.703125 24.191406 241.578125 24.511719 241.949219 C 24.765625 242.242188 25.210938 242.28125 25.503906 242.023438 C 25.800781 241.773438 25.832031 241.328125 25.582031 241.035156 C 25.5 240.945312 18.304688 232.507812 18.511719 226.773438 C 18.511719 226.761719 18.515625 226.757812 18.515625 226.75 C 18.515625 226.742188 18.511719 226.734375 18.511719 226.726562 C 18.527344 226.304688 18.582031 225.898438 18.6875 225.515625 C 21.300781 215.820312 27.585938 210.511719 34.863281 211.675781 C 34.527344 212.230469 34.230469 212.792969 34.007812 213.363281 C 31.847656 218.878906 33.660156 228.34375 33.738281 228.746094 C 33.8125 229.128906 34.183594 229.375 34.5625 229.300781 C 34.945312 229.226562 35.195312 228.855469 35.121094 228.476562 C 35.101562 228.378906 33.308594 219.007812 35.320312 213.878906 C 37.269531 208.898438 44.613281 204.019531 50.144531 204.019531 C 55.582031 204.019531 62.003906 212.125 64.773438 217.234375 C 67.285156 221.863281 67.164062 229.1875 58.792969 234.816406 C 53.914062 228.566406 54.601562 224.753906 53.988281 224.863281 C 53.136719 224.804688 54.183594 231.609375 58.042969 235.9375 C 58.0625 235.996094 58.078125 236.058594 58.113281 236.113281 C 58.191406 236.234375 58.304688 236.3125 58.429688 236.367188 C 62.074219 240.902344 67.878906 244.90625 68.035156 244.710938 C 68.390625 244.3125 64.972656 241.972656 59.6875 235.910156 C 63.964844 232.992188 66.300781 229.503906 67.175781 226.042969 C 67.894531 226.03125 68.613281 226 69.304688 225.957031 C 70.671875 225.886719 71.898438 225.820312 72.988281 225.9375 C 73.011719 225.941406 73.035156 225.953125 73.0625 225.953125 C 73.078125 225.953125 73.089844 225.945312 73.109375 225.945312 C 74.996094 226.179688 76.445312 226.992188 77.40625 229.347656 C 79.636719 234.785156 79.703125 243.558594 79.703125 244.539062 C 79.703125 246.152344 78.285156 249.617188 77.511719 251.324219 C 75.777344 251.027344 73.867188 251.265625 71.859375 252.039062 C 70.328125 248.789062 67.777344 246.960938 64.429688 246.777344 C 55.429688 246.285156 43.394531 257.039062 37.796875 267.394531 C 35.269531 272.070312 34.042969 277.550781 34.082031 282.742188 M 51.101562 299.839844 C 51.101562 299.835938 51.097656 299.835938 51.097656 299.835938 C 51.015625 299.722656 50.898438 299.644531 50.769531 299.597656 C 48.730469 297 45.785156 287.890625 45.609375 287.886719 C 44.96875 287.960938 47.28125 297.03125 49.496094 299.765625 C 44.519531 300.792969 41.339844 298.386719 39.527344 296.113281 C 34.386719 289.65625 34.164062 277.070312 39.035156 268.058594 C 44.984375 257.058594 56.8125 247.765625 64.351562 248.179688 C 67.195312 248.335938 69.289062 249.851562 70.601562 252.660156 C 66.820312 254.148438 61.441406 260.957031 61.941406 261.210938 C 62.070312 261.222656 68.195312 254.980469 71.199219 253.566406 C 71.375 253.652344 71.582031 253.667969 71.773438 253.59375 C 71.863281 253.554688 71.941406 253.5 72.007812 253.433594 C 72.078125 253.429688 72.148438 253.425781 72.21875 253.398438 C 75.085938 252.261719 77.585938 252.328125 79.640625 253.597656 C 82.792969 255.542969 84.816406 260.414062 85.519531 267.6875 C 83.308594 268.1875 81.109375 268.566406 78.976562 268.847656 C 79.171875 266.890625 78.199219 264.96875 76.453125 264.222656 C 74.921875 263.566406 69.410156 262.519531 62.648438 276.558594 C 61.003906 279.96875 60.191406 282.613281 59.902344 284.667969 C 59.902344 284.683594 59.894531 284.695312 59.894531 284.707031 C 59.894531 284.714844 59.894531 284.71875 59.894531 284.726562 C 59.289062 289.171875 61.136719 290.800781 62.25 291.367188 C 65.675781 293.101562 71.292969 290.324219 73.902344 285.636719 C 76.347656 285.675781 78.808594 285.707031 80.96875 285.730469 C 72.78125 297.886719 65.261719 304.382812 59.183594 304.507812 C 56.089844 304.570312 53.371094 303 51.101562 299.839844 M 61.050781 324.300781 C 64.679688 325.65625 68.089844 327.625 68.648438 328.1875 C 68.921875 328.460938 69.371094 328.460938 69.644531 328.1875 C 69.921875 327.910156 69.921875 327.464844 69.644531 327.191406 C 68.734375 326.28125 63.289062 323.277344 58.769531 322.089844 C 56.167969 321.40625 54.566406 320.265625 53.730469 318.503906 C 52.398438 315.707031 53.070312 311.261719 55.6875 305.320312 C 56.804688 305.730469 57.976562 305.9375 59.214844 305.914062 C 60.828125 305.878906 62.511719 305.457031 64.25 304.671875 C 62.664062 308.148438 62.425781 310.207031 63.480469 311.207031 C 65.070312 312.714844 68.757812 311.070312 74.191406 307.917969 C 80.09375 304.496094 93.511719 295.546875 92.949219 285.25 C 96.339844 284.820312 100.277344 284.085938 104.035156 282.878906 C 107.042969 288.242188 105.625 296.238281 104.921875 300.148438 C 104.71875 301.296875 104.566406 302.132812 104.566406 302.625 C 104.566406 303.015625 104.882812 303.328125 105.273438 303.328125 C 105.660156 303.328125 105.976562 303.015625 105.976562 302.625 C 105.976562 302.257812 106.128906 301.394531 106.308594 300.394531 C 106.648438 298.5 107.148438 295.667969 107.261719 292.609375 C 110.378906 292.878906 113.371094 294.980469 115.199219 298.269531 C 117.234375 301.945312 117.25 306.058594 115.234375 309.28125 C 111.648438 315.003906 100.75 332.421875 80.453125 338.019531 C 75.339844 339.429688 70.296875 338.636719 66.613281 335.835938 C 63.230469 333.261719 61.289062 329.183594 61.050781 324.300781 M 84.65625 382.761719 C 50.285156 393.414062 9.730469 384.207031 3.699219 382.070312 C 2.273438 381.5625 1.503906 380.917969 1.414062 380.144531 C 1.019531 376.664062 12.53125 369.347656 17.445312 366.226562 L 18.027344 365.859375 C 30.859375 357.699219 54.75 342.507812 77.730469 354.773438 C 78.070312 354.957031 78.5 354.828125 78.679688 354.484375 C 78.867188 354.144531 78.734375 353.71875 78.394531 353.535156 C 70.769531 349.46875 63.082031 348.316406 55.722656 348.890625 C 57.484375 347.535156 59.167969 345.71875 60.648438 343.875 C 80.367188 344.113281 100.398438 365.035156 105.21875 371.980469 C 99.023438 376.582031 92.132812 380.449219 84.65625 382.761719 M 106.34375 371.132812 C 101.402344 364.078125 81.574219 343.449219 61.710938 342.507812 C 63.5 340.117188 64.871094 337.875 65.53125 336.753906 C 65.609375 336.816406 65.679688 336.886719 65.757812 336.953125 C 69.800781 340.019531 75.289062 340.902344 80.828125 339.375 C 82.835938 338.816406 84.753906 338.152344 86.582031 337.394531 C 97.816406 338.597656 113.074219 350.054688 117.851562 360.8125 C 114.367188 364.402344 110.515625 367.925781 106.34375 371.132812 M 118.898438 359.714844 C 114.019531 349.421875 100.097656 338.667969 88.933594 336.347656 C 104.585938 328.921875 113.277344 315.054688 116.425781 310.027344 C 117.101562 308.945312 117.570312 307.785156 117.847656 306.574219 C 131.121094 308.441406 136.351562 317.734375 138.011719 321.792969 C 138.367188 324.800781 138.972656 328.195312 139.789062 331.21875 C 138.75 333.140625 131.230469 346.6875 118.898438 359.714844 M 141.289062 331.335938 C 139.898438 326.375 139.050781 320.050781 139.050781 316.445312 C 139.050781 300.394531 155.894531 284.984375 164.050781 280.039062 C 164.742188 279.617188 165.417969 279.214844 166.097656 278.804688 C 158.625 288.519531 159.554688 298.632812 159.980469 303.226562 C 160.039062 303.875 160.085938 304.410156 160.105469 304.832031 C 149.058594 315.382812 142.421875 324.632812 141.289062 331.335938 M 261.414062 255.835938 C 261.046875 262.933594 242.03125 294.347656 217.195312 314.496094 C 190.75 335.949219 154.851562 345.84375 145.105469 338.601562 C 144.683594 338.289062 144.320312 337.953125 144.003906 337.589844 C 143.917969 337.488281 143.835938 337.382812 143.753906 337.269531 C 143.746094 337.257812 143.738281 337.246094 143.730469 337.238281 C 143.527344 336.953125 143.324219 336.621094 143.132812 336.261719 C 142.722656 335.390625 142.519531 334.410156 142.519531 333.296875 C 142.53125 323.550781 158.441406 305.730469 184.042969 286.792969 C 216.4375 262.835938 256.71875 250.355469 261.242188 254.875 C 261.292969 254.921875 261.449219 255.132812 261.414062 255.835938 M 188.359375 266.425781 C 232.046875 244.222656 250.949219 248.273438 258.320312 252.644531 C 246.023438 251.96875 211.230469 264.9375 183.203125 285.667969 C 180.933594 287.347656 178.738281 289.015625 176.628906 290.667969 C 176 286.082031 178.488281 271.792969 188.359375 266.425781 M 182.222656 269.632812 C 175.847656 276.980469 174.566406 288.144531 175.394531 291.640625 C 170.207031 295.75 165.53125 299.75 161.425781 303.589844 C 161.414062 303.433594 161.398438 303.269531 161.382812 303.09375 C 160.886719 297.757812 159.863281 286.664062 169.992188 276.5 C 174.253906 274.003906 178.332031 271.71875 182.222656 269.632812 M 180.464844 268.980469 C 178.738281 269.917969 176.980469 270.890625 175.207031 271.890625 C 174.992188 272.011719 174.773438 272.136719 174.558594 272.261719 C 172.820312 273.242188 171.070312 274.25 169.296875 275.285156 C 169.292969 275.289062 169.292969 275.289062 169.289062 275.289062 C 169.257812 275.304688 169.230469 275.324219 169.203125 275.339844 C 169.199219 275.339844 169.199219 275.339844 169.199219 275.34375 C 169.144531 275.375 169.089844 275.410156 169.03125 275.441406 C 168.265625 275.886719 167.5 276.339844 166.730469 276.796875 C 166.683594 276.824219 166.636719 276.851562 166.59375 276.878906 C 165.507812 277.519531 164.421875 278.171875 163.320312 278.839844 C 156.367188 283.054688 143.285156 294.703125 139.03125 308.058594 C 137.695312 306.925781 137.246094 305.171875 137.121094 303.804688 C 136.644531 298.640625 139.976562 289.933594 148.414062 283.023438 C 148.714844 282.78125 148.757812 282.335938 148.511719 282.035156 C 148.265625 281.734375 147.824219 281.691406 147.523438 281.9375 C 143.6875 285.074219 140.871094 288.585938 138.941406 292.011719 C 137.398438 289.042969 137.3125 285.609375 138.707031 281.785156 C 141.738281 273.464844 151.875 264.414062 161.304688 261.609375 C 169.199219 259.253906 174.484375 259.1875 177.457031 261.402344 C 179.414062 262.859375 180.398438 265.347656 180.464844 268.980469 M 177.496094 246.207031 C 178.839844 247.546875 177.742188 254.375 176.457031 259.257812 C 173.003906 257.847656 167.886719 258.179688 160.902344 260.261719 C 159.203125 260.765625 157.5 261.464844 155.820312 262.304688 C 155.902344 262.011719 155.984375 261.683594 156.078125 261.328125 C 156.082031 261.3125 156.085938 261.289062 156.09375 261.269531 C 156.175781 260.9375 156.261719 260.570312 156.347656 260.1875 C 156.355469 260.160156 156.359375 260.128906 156.367188 260.101562 C 156.449219 259.726562 156.53125 259.332031 156.613281 258.921875 C 156.621094 258.878906 156.628906 258.839844 156.636719 258.792969 C 156.722656 258.347656 156.808594 257.894531 156.882812 257.414062 C 156.882812 257.410156 156.882812 257.40625 156.886719 257.402344 C 156.886719 257.402344 156.886719 257.398438 156.886719 257.398438 C 156.949219 256.996094 157.007812 256.585938 157.0625 256.167969 C 157.074219 256.097656 157.082031 256.027344 157.089844 255.953125 C 157.09375 255.949219 157.09375 255.945312 157.09375 255.9375 C 157.105469 255.847656 157.113281 255.75 157.125 255.65625 C 157.152344 255.394531 157.1875 255.132812 157.210938 254.863281 C 157.222656 254.71875 157.234375 254.566406 157.246094 254.417969 C 157.25 254.363281 157.253906 254.308594 157.257812 254.253906 C 157.277344 254 157.296875 253.742188 157.3125 253.480469 C 157.3125 253.464844 157.3125 253.453125 157.3125 253.4375 C 157.335938 252.972656 157.347656 252.503906 157.347656 252.035156 C 157.347656 251.644531 157.035156 251.332031 156.644531 251.332031 C 156.257812 251.332031 155.941406 251.644531 155.941406 252.035156 C 155.941406 253.09375 155.875 254.160156 155.765625 255.191406 C 153.207031 253.671875 146.636719 255.171875 137.066406 257.601562 C 134.660156 258.214844 132.359375 258.800781 130.300781 259.257812 C 133.511719 254.996094 136.671875 250.308594 139.363281 245.417969 C 154.621094 240.410156 172.035156 240.757812 177.496094 246.207031 M 146.839844 241.96875 C 144.664062 242.421875 142.476562 242.980469 140.3125 243.636719 C 141.921875 240.550781 143.324219 237.394531 144.410156 234.226562 C 147.828125 224.257812 145.136719 218.050781 140.957031 216.320312 C 137.621094 214.941406 132.617188 216.34375 129.507812 222.679688 C 128.351562 225.03125 127.207031 227.234375 126.023438 229.375 C 127.667969 221.347656 129.296875 211.847656 129.527344 204.800781 C 135.480469 210.257812 143.320312 215.023438 152.179688 218.339844 C 152.839844 218.585938 153.515625 218.820312 154.195312 219.050781 C 154.980469 226.714844 149.953125 238.664062 146.839844 241.96875 M 177.128906 239.296875 C 167.5625 233.304688 156.175781 234.492188 152.332031 235.128906 C 154.355469 230.296875 155.960938 224.324219 155.644531 219.523438 C 161.738281 221.460938 168.351562 222.726562 174.996094 223.359375 C 177.328125 228.496094 177.253906 236.328125 177.128906 239.296875 M 152.671875 217.023438 C 143.425781 213.5625 135.320312 208.507812 129.390625 202.765625 C 129.359375 202.722656 129.324219 202.6875 129.28125 202.65625 C 124.734375 198.226562 121.484375 193.386719 120.003906 188.554688 C 118.367188 183.226562 119.070312 178.210938 122.035156 174.054688 C 126.101562 168.339844 130.785156 165.40625 135.960938 165.335938 C 143.113281 165.238281 151.082031 170.714844 159.015625 181.164062 C 163.167969 189.570312 168.988281 193.753906 175.835938 197.773438 C 181.898438 201.328125 190.601562 200.511719 199.023438 199.722656 C 205.269531 199.140625 211.253906 198.578125 215.414062 199.9375 C 212.980469 201.820312 211.65625 204.027344 212.015625 206.15625 C 212.507812 209.097656 216.09375 211.136719 221.007812 211.746094 C 213.53125 223.1875 176.890625 226.09375 152.671875 217.023438 M 230.375 203.585938 C 226.433594 204.558594 222.972656 204.273438 222.644531 202.941406 C 222.3125 201.613281 225.238281 199.746094 229.179688 198.769531 C 233.117188 197.796875 236.578125 198.082031 236.910156 199.410156 C 237.238281 200.738281 234.316406 202.609375 230.375 203.585938 M 235.441406 195.492188 C 232.808594 195.09375 229.75 195.113281 226.550781 195.648438 C 222.726562 196.292969 219.335938 197.566406 216.777344 199.160156 C 212.269531 197.277344 205.726562 197.882812 198.867188 198.523438 C 190.667969 199.292969 182.191406 200.085938 176.527344 196.761719 C 163.933594 189.378906 154.929688 181.394531 153.726562 145.714844 C 153.054688 125.742188 160.5625 116.277344 166.980469 111.855469 C 175.304688 106.121094 185.46875 106.246094 191.847656 108.910156 C 202.582031 113.398438 215.015625 128.277344 216.320312 155.652344 C 215.914062 154.851562 215.390625 154.3125 214.734375 154.125 C 211.425781 153.15625 206.199219 161.066406 203.058594 171.785156 C 199.917969 182.503906 200.058594 191.980469 203.367188 192.945312 C 206.675781 193.914062 211.902344 186.003906 215.042969 175.285156 C 215.792969 172.710938 216.355469 170.210938 216.730469 167.882812 C 217.382812 175.414062 219.203125 179.363281 222.003906 180.242188 C 223.273438 180.644531 225.125 179.988281 225.417969 179.984375 C 225.089844 182.375 224.378906 185.890625 224.285156 188.683594 C 224.199219 191.210938 224.390625 193.3125 226.164062 193.207031 C 227.207031 193.148438 228.589844 191.78125 229.699219 190.429688 C 234.15625 184.96875 239.515625 169.617188 238.019531 161.5625 C 246.316406 145.410156 250.964844 139.972656 252.457031 140.324219 C 252.546875 140.34375 253.34375 140.632812 253.34375 144.179688 C 253.34375 166.347656 247.324219 183.613281 235.441406 195.492188 M 212.34375 165.925781 C 210.597656 170.527344 208.570312 173.199219 207.539062 172.808594 C 206.511719 172.421875 206.867188 169.121094 208.613281 164.519531 C 210.355469 159.914062 212.285156 157.65625 213.3125 158.042969 C 214.34375 158.429688 214.082031 161.320312 212.34375 165.925781 Z M 212.34375 165.925781 "/>
<path style=" stroke:none;fill-rule:nonzero;fill:rgb(0%,0%,0%);fill-opacity:1;" d="M 151.335938 195.546875 C 146.566406 190.554688 140.4375 186.003906 137.949219 184.359375 C 137.738281 184.222656 137.492188 184.195312 137.308594 184.257812 C 137.355469 184.238281 137.394531 184.214844 137.445312 184.199219 C 143.144531 182.996094 145.664062 185.226562 145.820312 184.421875 C 146.09375 184.113281 141.347656 181.585938 136.976562 183.039062 C 131.859375 184.207031 131.828125 190.835938 132.335938 190.433594 C 133.011719 190.828125 131.839844 186.425781 137.242188 184.285156 C 136.957031 184.421875 136.882812 184.800781 137.527344 185.3125 C 140.5625 187.664062 146.554688 192.179688 151.15625 196.78125 C 156.121094 201.25 157.523438 206.765625 157.429688 206.828125 C 158.007812 206.851562 156.617188 200.269531 151.335938 195.546875 Z M 151.335938 195.546875 "/>
</g>
</svg>
